<?xml version="1.0" standalone="no"?>
<!DOCTYPE svg PUBLIC "-//W3C//DTD SVG 1.1//EN" "http://www.w3.org/Graphics/SVG/1.1/DTD/svg11.dtd" >
<svg xmlns="http://www.w3.org/2000/svg">
<metadata>
This is a custom SVG webfont generated by Font Squirrel.
Copyright   :  2000 2004 Adobe Systems Incorporated All Rights Reserved US Patent D454582
Designer    : Robert Slimbach and Carol Twombly
Foundry URL : httpwwwadobecomtype
</metadata>
<defs>
<font id="MyriadProBoldCondensedItalic" horiz-adv-x="878" >
<font-face units-per-em="2048" ascent="1536" descent="-512" />
<missing-glyph horiz-adv-x="290" />
<glyph unicode=" "  horiz-adv-x="290" />
<glyph unicode="&#x09;" horiz-adv-x="290" />
<glyph unicode="&#xa0;" horiz-adv-x="290" />
<glyph unicode="!" horiz-adv-x="483" d="M20 139q0 63 48.5 119.5t111.5 56.5q70 0 109 -43t39 -108q0 -78 -49.5 -129t-116.5 -51h-2q-63 0 -101.5 43.5t-38.5 111.5zM119 449l147 931h289l-213 -931h-223z" />
<glyph unicode="&#x22;" horiz-adv-x="647" d="M162 868l59 533h213l-127 -533h-145zM492 868l59 533h213l-129 -533h-143z" />
<glyph unicode="#" d="M20 401l29 144h164l78 252h-156l27 141h172l121 393h145l-121 -393h146l123 393h145l-123 -393h148l-29 -141h-164l-74 -252h154l-27 -142h-172l-125 -403h-147l127 403h-148l-125 -403h-147l127 401h-148zM358 545h148l74 252h-146z" />
<glyph unicode="$" d="M51 84l62 195q102 -47 186 -48q90 0 138 48.5t48 119.5q0 63 -25.5 107.5t-84.5 93.5q-178 152 -178 328q0 123 80.5 227.5t238.5 132.5l33 197h153l-36 -189q104 -4 165 -45l-65 -190q-74 39 -154 39q-72 0 -119 -43t-47 -107q0 -51 26 -95t101 -103q158 -125 158 -310 q0 -164 -93 -273.5t-241 -127.5l-39 -215h-153l43 209q-115 6 -197 49z" />
<glyph unicode="%" horiz-adv-x="1372" d="M94 811q0 203 99.5 370t250.5 167h2q119 0 170.5 -78t51.5 -187q0 -227 -100.5 -389t-243.5 -162q-109 0 -169.5 75t-60.5 204zM152 -20l972 1370h142l-971 -1370h-143zM270 788q0 -117 62 -116q76 0 118 166t42 270q0 100 -58 100h-2q-53 0 -92 -86t-54.5 -178.5 t-15.5 -155.5zM762 268q0 203 99.5 370t250.5 167h2q119 0 170 -78t51 -188q0 -227 -101 -388t-245 -161q-109 0 -168 73.5t-59 204.5zM936 246q0 -117 63 -117q53 0 92 97.5t53.5 191.5t14.5 145q0 102 -59 103h-2q-74 0 -118 -152.5t-44 -267.5z" />
<glyph unicode="&#x26;" horiz-adv-x="1077" d="M8 309q0 274 309 445v6q-63 127 -63 246q-2 174 109.5 282.5t267.5 108.5q150 0 219.5 -83t69.5 -194q0 -238 -324 -415v-11q16 -29 72.5 -141.5t81.5 -153.5q70 113 127 336h210q-35 -141 -103.5 -275t-152.5 -222q35 -66 140 -238h-271q-45 78 -49 88 q-135 -104 -307 -104q-156 0 -246 95t-90 230zM256 350q0 -76 44 -127t110 -51h2q92 0 159 68q-96 166 -180 356q-135 -92 -135 -246zM485 1024q0 -94 39 -168q172 113 172 270q0 104 -82 105h-2q-57 0 -92 -61.5t-35 -145.5z" />
<glyph unicode="'" horiz-adv-x="317" d="M162 868l59 533h213l-127 -533h-145z" />
<glyph unicode="(" horiz-adv-x="528" d="M92 324q0 346 127 635.5t291 457.5h201q-172 -180 -294 -470t-122 -623q0 -348 92 -570h-180q-115 232 -115 570z" />
<glyph unicode=")" horiz-adv-x="528" d="M-160 -246q170 186 292 476t122 626q0 356 -90 561h188q106 -221 107 -561q0 -348 -125 -637t-285 -465h-209z" />
<glyph unicode="*" horiz-adv-x="772" d="M113 913l34 205l263 -61l4 6l-181 240l189 92l78 -289h6l112 291l177 -99l-228 -235l2 -6l289 61l-35 -205l-272 64l-2 -6l188 -236l-190 -92l-80 295l-6 -6l-125 -295l-164 108l231 236l-6 2z" />
<glyph unicode="+" horiz-adv-x="1220" d="M92 463v168h440v459h175v-459h442v-168h-442v-463h-175v463h-440z" />
<glyph unicode="," horiz-adv-x="460" d="M-129 -256q172 330 242 545l272 20q-156 -334 -328 -547z" />
<glyph unicode="-" horiz-adv-x="530" d="M57 469l37 193h408l-37 -193h-408z" />
<glyph unicode="." horiz-adv-x="460" d="M29 149.5q0 73.5 50 132t116 58.5q74 0 113.5 -45t39.5 -119q0 -86 -50 -139t-120 -53h-2q-70 0 -108.5 46t-38.5 119.5z" />
<glyph unicode="/" horiz-adv-x="573" d="M-162 -82l764 1479h189l-764 -1479h-189z" />
<glyph unicode="0" d="M70 397q0 231 58 444.5t180 360t282 146.5q297 0 297 -404q0 -154 -30 -314.5t-89 -309t-164.5 -242.5t-238.5 -94q-115 0 -184.5 68.5t-90 153.5t-20.5 191zM315 375q0 -174 84 -174q72 0 131.5 170t84 343t24.5 269q0 147 -73.5 147t-135 -157.5t-88.5 -326.5t-27 -271 z" />
<glyph unicode="1" d="M238 1182l309 149h223l-254 -1331h-252l207 1085h-4l-225 -108z" />
<glyph unicode="2" d="M-16 0l30 180l150 166q240 262 311 371q104 152 105 262q0 154 -152 154q-90 0 -176 -52l-25 195q131 72 281 72q96 0 163.5 -30t101.5 -81t47.5 -100.5t13.5 -104.5q0 -98 -32 -190t-102.5 -190.5t-116.5 -152t-143 -153.5q-23 -23 -32 -35l-74 -80v-4h393l-41 -227 h-702z" />
<glyph unicode="3" d="M12 25l66 215q84 -33 162 -33q106 0 171.5 60.5t65.5 156.5q0 92 -57.5 138t-143.5 46h-36l36 201h27q86 0 163 48t77 140q0 57 -38 91t-106 34q-78 0 -143 -35l2 213q98 47 231 48q168 0 245 -85t77 -202q0 -121 -70.5 -213t-171.5 -129l-2 -4q80 -35 124 -111t44 -170 q0 -197 -137 -323.5t-354 -126.5q-154 0 -232 41z" />
<glyph unicode="4" d="M18 326l31 178l572 827h245l-153 -805h135l-37 -200h-135l-64 -326h-223l66 326h-437zM270 526h222l49 254q10 49 34.5 146.5t28.5 111.5h-6l-139 -229l-187 -279z" />
<glyph unicode="5" d="M16 20l64 216q66 -31 147 -31q113 0 191 71.5t78 184.5q0 106 -63.5 154.5t-168.5 48.5q-53 0 -86 -5l172 672h529l-48 -227h-315l-67 -248q4 2 10 2q35 0 100.5 -26.5t108.5 -77.5q80 -92 80 -250q0 -221 -151 -370.5t-378 -149.5q-146 -1 -203 36z" />
<glyph unicode="6" d="M61 393q0 240 94.5 441.5t223.5 318.5q174 160 397 188q35 6 74 7l-37 -220q-31 0 -72 -10q-252 -57 -366 -344h8q82 94 199 94q123 -2 181 -94t58 -209q0 -233 -126 -407t-318 -174q-166 0 -241 118.5t-75 290.5zM301 340q0 -170 92 -170h2q59 0 100.5 67.5t56.5 148.5 t15 161q0 133 -94 133q-39 0 -79 -36t-66 -91q-8 -29 -13 -41q-14 -88 -14 -172z" />
<glyph unicode="7" d="M31 0l592 1100l2 4h-432l43 227h692l-33 -176l-608 -1155h-256z" />
<glyph unicode="8" d="M27 311q0 242 262 402l2 4q-113 106 -113 254q0 162 114 269.5t277 107.5h2q152 0 234 -84t82 -215q0 -215 -232 -342v-7q147 -123 148 -299q0 -184 -129 -300.5t-297 -116.5q-166 0 -258 90t-92 237zM274 326q0 -172 113 -172h2q70 0 117 68.5t47 168.5q0 143 -119 217 q-63 -41 -111.5 -115.5t-48.5 -166.5zM414 975q0 -109 94 -178q143 86 143 254q0 129 -96 129h-2q-55 0 -97 -60.5t-42 -144.5z" />
<glyph unicode="9" d="M90 -16l37 223q53 0 102 10q86 16 162 80q121 96 184 258h-4q-76 -72 -186 -72q-123 0 -188.5 90.5t-65.5 214.5q0 217 131 388.5t316 171.5q90 0 154.5 -35t97 -92.5t46 -118t13.5 -127.5q-2 -264 -100.5 -478t-231.5 -335q-150 -139 -356 -172q-35 -6 -111 -6zM385 815 q0 -154 94 -153q74 0 121 83q12 20 31 113q16 70 16 154q0 150 -88 149h-2q-53 0 -94 -61.5t-59.5 -138t-18.5 -146.5z" />
<glyph unicode=":" horiz-adv-x="460" d="M35 141.5q0 67.5 49 125t111 57.5q70 0 108.5 -44t38.5 -112q0 -80 -48 -132t-116 -52h-2q-66 0 -103.5 45t-37.5 112.5zM164 813q0 68 48 125t112 57q70 0 108.5 -44t38.5 -111q0 -80 -49 -132.5t-115 -52.5h-2q-66 0 -103.5 45t-37.5 113z" />
<glyph unicode=";" horiz-adv-x="460" d="M-129 -256q170 319 244 545l264 20q-156 -334 -328 -547zM166 813q0 68 49 125t113 57q70 0 108.5 -44t38.5 -111q0 -80 -49 -132.5t-117 -52.5h-2q-63 0 -102 45t-39 113z" />
<glyph unicode="&#x3c;" horiz-adv-x="1220" d="M129 481v127l983 482v-209l-721 -336v-4l721 -334v-207z" />
<glyph unicode="=" horiz-adv-x="1220" d="M111 272v168h1056v-168h-1056zM111 655v168h1056v-168h-1056z" />
<glyph unicode="&#x3e;" horiz-adv-x="1220" d="M150 0v203l786 340v4l-786 340v203l985 -455v-180z" />
<glyph unicode="?" horiz-adv-x="665" d="M84 139q0 63 49 119.5t111 56.5q72 0 110.5 -43t38.5 -108q0 -78 -50 -129t-120 -51h-2q-61 0 -99 44.5t-38 110.5zM174 432q0 6 1 18.5t1 18.5q14 162 170 352q43 51 65.5 83t43 78t20.5 89q0 111 -113 111q-86 0 -145 -39l-6 205q94 57 238 57q92 0 156.5 -27.5 t93 -71.5t40 -85t11.5 -84q0 -74 -36 -157t-64.5 -123t-88.5 -112q-10 -12 -14 -18q-113 -137 -133 -252q-2 -8 -5 -22.5t-6 -20.5h-229z" />
<glyph unicode="@" horiz-adv-x="1261" d="M72 412q0 207 80.5 389t234.5 297.5t346 115.5q233 0 359.5 -153.5t126.5 -376.5q0 -262 -86 -406.5t-238 -144.5q-147 0 -152 174h-4q-37 -82 -97 -128t-128 -46q-82 0 -129 66.5t-47 179.5q0 203 115.5 350.5t308.5 147.5q113 0 188 -43l-67 -377q-39 -211 57 -211 q68 0 118 108.5t50 300.5q0 209 -98.5 338t-296.5 129q-211 0 -371 -200.5t-160 -509.5q0 -252 120 -386.5t312 -134.5q137 0 267 74l30 -86q-145 -82 -325 -82q-211 0 -362.5 163t-151.5 452zM510 389q0 -113 72 -113q45 0 85 60.5t54 138.5l47 266q-18 10 -53 11 q-76 0 -140.5 -106.5t-64.5 -256.5z" />
<glyph unicode="A" horiz-adv-x="911" d="M-74 0l559 1380h299l13 -1380h-248l4 319h-256l-121 -319h-250zM358 508h203l6 305q0 37 5.5 157t7.5 177h-5q-92 -295 -106 -332z" />
<glyph unicode="B" horiz-adv-x="956" d="M31 12l256 1350q123 25 266 24q213 0 311 -96q84 -78 84 -219q0 -123 -75.5 -219t-188.5 -131v-8q182 -63 182 -295q0 -180 -147 -303q-150 -121 -432 -121q-168 0 -256 18zM307 199q18 -4 64 -4q109 0 176 69.5t67 177.5q0 90 -45 140.5t-131 50.5h-45zM430 823h37 q109 0 171 61.5t62 164.5q0 61 -31.5 105t-101.5 44q-51 0 -69 -6z" />
<glyph unicode="C" horiz-adv-x="786" d="M78 459q0 496 264 760q168 174 410 174q119 0 157 -29l-71 -225q-45 20 -119 20q-119 0 -207 -115q-162 -205 -162 -528q0 -297 187 -297q86 0 141 23l-10 -228q-61 -27 -189 -26q-100 0 -176 34.5t-117 85t-67.5 118t-33.5 122t-7 111.5z" />
<glyph unicode="D" horiz-adv-x="985" d="M33 20l254 1342q119 25 264 24q229 0 340 -141q102 -127 102 -358q0 -246 -90 -457t-207 -305q-158 -131 -417 -131q-154 -1 -246 26zM315 217q49 -6 68 -6q66 0 130.5 50t107.5 140q111 225 110 512q0 113 -41 190t-131 77q-45 0 -57 -4z" />
<glyph unicode="E" horiz-adv-x="792" d="M29 0l264 1380h577l-45 -225h-317l-68 -328h310l-43 -217h-304l-75 -383h348l-45 -227h-602z" />
<glyph unicode="F" horiz-adv-x="788" d="M29 0l264 1380h577l-45 -225h-317l-72 -367h301l-41 -215h-299l-110 -573h-258z" />
<glyph unicode="G" horiz-adv-x="960" d="M80 475q0 215 67.5 405.5t192.5 321.5q180 190 448 191q127 0 220 -37l-82 -226q-61 27 -150 27q-137 0 -229 -90q-88 -88 -142.5 -244.5t-54.5 -343.5q0 -270 166 -270q43 0 74 8l63 342h-125l43 207h357l-137 -727q-135 -51 -273 -51q-221 0 -336 143 q-102 127 -102 344z" />
<glyph unicode="H" horiz-adv-x="1036" d="M29 0l264 1380h256l-109 -561h281l106 561h256l-264 -1380h-254l107 586h-277l-110 -586h-256z" />
<glyph unicode="I" horiz-adv-x="501" d="M29 0l264 1380h256l-264 -1380h-256z" />
<glyph unicode="J" horiz-adv-x="585" d="M-86 -2l41 227q41 -8 94 -8q125 0 160 186l188 977h256l-186 -968q-45 -240 -146.5 -334t-281.5 -94q-78 0 -125 14z" />
<glyph unicode="K" horiz-adv-x="907" d="M29 0l264 1380h250l-125 -647h6q33 68 115 207l258 440h278l-418 -610l158 -770h-268l-88 586l-90 -125l-90 -461h-250z" />
<glyph unicode="L" horiz-adv-x="718" d="M29 0l264 1380h256l-221 -1157h336l-43 -223h-592z" />
<glyph unicode="M" horiz-adv-x="1275" d="M-27 0l351 1380h272l25 -655q5 -150 5 -253q0 -51 -1 -91h4q31 117 121 344l264 655h272l-180 -1380h-223l73 541q16 123 74 442h-8q-78 -238 -164 -434l-225 -526h-182l-25 532q-7 168 -7 315q0 59 1 113h-4q-57 -299 -94 -442l-127 -541h-222z" />
<glyph unicode="N" horiz-adv-x="1030" d="M29 0l264 1380h233l107 -549q55 -289 67 -428h5q53 444 86 619l67 358h221l-264 -1380h-219l-111 514q-49 223 -69 459h-4q-47 -362 -95 -606l-69 -367h-219z" />
<glyph unicode="O" horiz-adv-x="985" d="M68 434q0 227 75.5 465t210.5 371q131 127 303 127q336 0 336 -439q0 -233 -73.5 -472.5t-204.5 -370.5t-305 -131q-104 0 -178 47t-107 123.5t-45 143t-12 136.5zM332 410q0 -201 117 -201q47 0 83 41q90 90 143.5 331.5t53.5 397.5q0 193 -106 192q-49 0 -93 -43 q-88 -90 -143 -316t-55 -402z" />
<glyph unicode="P" horiz-adv-x="919" d="M29 0l260 1362q143 25 276 24q215 0 316 -110q86 -92 86 -238q0 -252 -179 -413q-141 -121 -348 -121q-45 0 -65 2l-96 -506h-250zM416 717q16 -2 49 -2q125 0 184.5 96t59.5 209q0 158 -144 158q-41 0 -61 -7z" />
<glyph unicode="Q" horiz-adv-x="985" d="M68 438q0 221 73.5 454.5t210.5 371.5q133 133 299 133q342 0 342 -445q0 -209 -70.5 -448.5t-187.5 -356.5q-41 -41 -86 -63l-2 -8q88 -43 246 -94l-127 -193q-150 63 -338 174q-33 20 -43 21q-158 8 -237.5 131.5t-79.5 322.5zM330 397q0 -190 121 -190q39 0 75 37 q86 88 143.5 333.5t59.5 411.5q0 182 -111 182q-49 0 -92 -43q-90 -92 -143 -327.5t-53 -403.5z" />
<glyph unicode="R" horiz-adv-x="940" d="M29 0l260 1362q147 25 274 24q211 0 305 -94q90 -90 90 -227q0 -147 -79.5 -262t-200.5 -156v-4q106 -49 113 -268q8 -326 22 -375h-258q-10 66 -10 330q0 125 -28 174t-93 49h-43l-102 -553h-250zM422 752h59q94 0 154.5 85t60.5 197q0 63 -30.5 107.5t-96.5 44.5 q-43 0 -67 -6z" />
<glyph unicode="S" horiz-adv-x="765" d="M-8 39l65 223q80 -47 191 -47h13q79 0 130 45q55 49 55 131q0 63 -30.5 109.5t-106.5 120.5q-164 158 -164 335q0 193 125 315t326 122q137 0 207 -43l-70 -222q-68 37 -149.5 37t-132 -48t-52.5 -128q0 -51 29 -97t109 -118q166 -147 165 -332q0 -211 -125.5 -332.5 t-326.5 -121.5q-176 0 -258 51z" />
<glyph unicode="T" horiz-adv-x="757" d="M129 1139l47 241h735l-47 -241h-239l-217 -1139h-256l217 1139h-240z" />
<glyph unicode="U" horiz-adv-x="995" d="M92 309q0 74 25 217l162 854h258l-172 -897q-18 -92 -19 -151q0 -121 103 -121q66 0 106.5 57.5t69.5 204.5l174 907h256l-166 -870q-49 -262 -160 -394t-309 -132q-166 0 -247 84.5t-81 240.5z" />
<glyph unicode="V" horiz-adv-x="886" d="M156 1380h284l-18 -698q-6 -217 -21 -391h5q61 225 118 391l248 698h283l-578 -1380h-278z" />
<glyph unicode="W" horiz-adv-x="1349" d="M137 0l43 1380h266l-43 -620q-10 -127 -45 -445h7q37 162 131 420l239 645h234l-23 -616q-6 -170 -33 -449h5q45 184 118 430l201 635h252l-492 -1380h-270v463q4 254 27 450h-4q-117 -344 -179 -483l-178 -430h-256z" />
<glyph unicode="X" horiz-adv-x="784" d="M-115 0l385 711l-104 669h256l31 -256q18 -180 22 -239h4q37 102 103 243l116 252h263l-383 -690l129 -690h-258l-43 303q-16 131 -21 213h-6l-100 -227l-134 -289h-260z" />
<glyph unicode="Y" horiz-adv-x="798" d="M137 1380h275l28 -329q10 -150 11 -295h4q61 170 110 278l160 346h268l-467 -854l-98 -526h-256l100 528z" />
<glyph unicode="Z" horiz-adv-x="763" d="M-70 0l29 166l604 981v4h-375l45 229h660l-39 -209l-580 -938v-4h400l-45 -229h-699z" />
<glyph unicode="[" horiz-adv-x="528" d="M-43 -229l311 1634h367l-33 -166h-172l-250 -1302h176l-32 -166h-367z" />
<glyph unicode="\" horiz-adv-x="573" d="M117 1397h170l258 -1479h-172z" />
<glyph unicode="]" horiz-adv-x="528" d="M-90 -229l33 166h172l250 1302h-177l33 166h367l-312 -1634h-366z" />
<glyph unicode="^" horiz-adv-x="1220" d="M88 362l434 969h172l432 -969h-202l-312 740h-12l-311 -740h-201z" />
<glyph unicode="_" horiz-adv-x="1024" d="M-127 -256l21 102h1024l-21 -102h-1024z" />
<glyph unicode="`" horiz-adv-x="776" d="M299 1407h233l97 -287h-168z" />
<glyph unicode="a" horiz-adv-x="872" d="M33 285q0 96 18.5 193t62.5 195.5t109.5 174.5t167 123t223.5 47q160 0 263 -41l-111 -557q-41 -195 -41 -385v-35h-221q0 25 3 80t5 88h-6q-111 -184 -256 -184q-106 0 -161.5 82t-55.5 219zM283 346q0 -152 75 -151q51 0 97.5 79.5t74.5 217.5l66 329q-31 6 -53 6 q-78 0 -140.5 -92t-90 -198.5t-29.5 -190.5z" />
<glyph unicode="b" horiz-adv-x="888" d="M41 205q0 51 16 139l209 1073h252l-108 -540h4q96 141 229 141q63 0 107.5 -28.5t64 -77t27.5 -92.5t8 -89q0 -299 -151.5 -523t-401.5 -224q-256 0 -256 221zM295 262q0 -92 70 -92q94 0 158.5 171t64.5 308q0 76 -14.5 114t-61.5 38q-51 0 -94 -59.5t-62 -143.5 l-51 -236q-10 -57 -10 -100z" />
<glyph unicode="c" horiz-adv-x="630" d="M41 348q0 274 153.5 471t385.5 197q80 0 125 -19l-64 -209q-41 10 -72 11q-111 0 -191.5 -126t-80.5 -288q0 -88 35 -138t96 -50q33 0 123 22l-19 -205q-61 -27 -178 -26q-156 0 -234.5 104t-78.5 256z" />
<glyph unicode="d" horiz-adv-x="876" d="M33 297q0 178 58.5 341t175 271.5t263.5 108.5q49 0 91 -23l81 422h254l-204 -1087q-31 -162 -52 -330h-208l12 147h-4q-45 -76 -109.5 -119.5t-130.5 -43.5q-106 0 -166.5 85t-60.5 228zM287 342q0 -147 84 -147q88 0 141 184l76 422q-25 25 -64 24q-68 0 -125 -88 t-84.5 -197.5t-27.5 -197.5z" />
<glyph unicode="e" horiz-adv-x="786" d="M41 365q0 113 30.5 225t89 209.5t153 158t208.5 60.5q129 0 196.5 -80t69.5 -193q0 -195 -137 -284q-128 -84 -334 -85q-14 0 -28 1q-1 -10 -1 -19q0 -59 23 -98q43 -72 140 -72q100 0 202 50l17 -195q-133 -55 -289 -55q-176 0 -258 102.5t-82 274.5zM313 569h20 q94 0 157 36q71 40 71 116v2q0 90 -72 90q-57 0 -105 -67.5t-71 -176.5z" />
<glyph unicode="f" horiz-adv-x="573" d="M35 0l158 821h-134l33 180h135l9 41q37 193 151 299q98 92 254 93q84 0 145 -21l-57 -196q-37 12 -80 12q-63 0 -105 -54.5t-57 -130.5l-8 -43h195l-35 -180h-190l-158 -821h-256z" />
<glyph unicode="g" horiz-adv-x="876" d="M-14 -365l65 195q74 -41 160 -41q195 0 246 240l22 121h-4q-92 -147 -225 -148q-100 0 -153.5 81t-57.5 206v13q0 116 33 236q35 126 100.5 234.5t175 177t240.5 68.5q162 0 284 -60l-161 -854q-51 -279 -172 -395q-119 -119 -338 -119q-143 0 -215 45zM293 365 q0 -160 78 -160q53 0 96 71.5t57 147.5l72 385q-23 12 -53 12q-102 0 -175 -155.5t-75 -300.5z" />
<glyph unicode="h" horiz-adv-x="907" d="M-2 0l270 1417h256l-104 -538h4q106 139 252 139q92 0 137 -59.5t45 -159.5q0 -68 -24 -197l-115 -602h-256l117 602q12 78 12 127q0 80 -62 80q-47 0 -96 -64.5t-69 -173.5l-111 -571h-256z" />
<glyph unicode="i" horiz-adv-x="446" d="M-2 0l192 1001h256l-192 -1001h-256zM238 1257q2 61 40.5 109.5t102.5 48.5q59 0 91 -39q30 -37 30 -87q0 -78 -45 -124q-43 -43 -103 -43h-2q-57 0 -85.5 38t-28.5 97z" />
<glyph unicode="j" horiz-adv-x="425" d="M-242 -397l25 190q33 -4 51 -4q63 0 102 51t66 195l184 966h256l-178 -931q-43 -227 -104 -334q-86 -145 -291 -146q-56 1 -111 13zM231 1257q2 61 41 109.5t103 48.5q59 0 91 -39t30 -94q0 -74 -43 -117t-105 -43h-2q-57 0 -86 38t-29 97z" />
<glyph unicode="k" horiz-adv-x="806" d="M0 0l268 1417h250l-158 -829h5l71 119l185 294h274l-322 -442l152 -559h-262l-90 432l-60 -86l-65 -346h-248z" />
<glyph unicode="l" horiz-adv-x="444" d="M-2 0l270 1417h256l-270 -1417h-256z" />
<glyph unicode="m" horiz-adv-x="1339" d="M-2 0l129 676q18 90 53 325h219l-10 -137h4q102 154 273 154q70 0 113.5 -42t54.5 -112q106 154 274 154q90 0 137 -58.5t47 -158.5q0 -61 -24 -203l-115 -598h-252l113 594q16 88 16 149q0 70 -61 70q-47 0 -95.5 -71.5t-74.5 -209.5l-103 -532h-245l112 594 q16 82 17 143q0 76 -58 76q-43 0 -94 -74.5t-76 -206.5l-100 -532h-254z" />
<glyph unicode="n" horiz-adv-x="907" d="M-2 0l129 676q18 90 53 325h219l-10 -129h4q106 145 271 146q100 0 147 -60.5t47 -158.5q0 -72 -24 -191l-115 -608h-256l119 623q12 70 12 106q0 80 -64 80q-49 0 -99 -72.5t-77 -206.5l-100 -530h-256z" />
<glyph unicode="o" horiz-adv-x="854" d="M39 330q0 172 57.5 327.5t172 258t259.5 102.5q291 0 291 -350q0 -164 -53 -317.5t-163.5 -260t-256.5 -106.5q-90 0 -153.5 31.5t-95 87t-45 111t-13.5 116.5zM295 284q2 -22 9 -50.5t24.5 -42t46.5 -13.5q84 0 138 178.5t54 341.5q0 125 -80 125q-78 0 -137 -168 q-57 -162 -57 -303q0 -46 2 -68z" />
<glyph unicode="p" horiz-adv-x="888" d="M-76 -393l203 1065q23 119 53 329h219l-16 -145h4q45 76 112.5 119t137.5 43q215 0 215 -309q0 -172 -55.5 -336t-167 -276.5t-250.5 -112.5q-80 0 -123 24h-6l-74 -401h-252zM287 199q35 -25 71 -25q72 0 128.5 94t80 203t23.5 193q0 31 -2 51t-9.5 41.5t-22.5 33 t-40 11.5q-49 0 -95 -66.5t-65 -159.5z" />
<glyph unicode="q" horiz-adv-x="874" d="M33 299q0 115 32.5 235.5t96 231.5t176.5 181.5t254 70.5q121 0 278 -55l-260 -1356h-252l111 536h-4q-88 -160 -219 -159q-102 0 -157.5 85t-55.5 230zM285 336q0 -7 -1 -13q0 -128 78 -128q55 0 96.5 70.5t57.5 146.5l74 397q-18 12 -51 12q-72 0 -132.5 -82 t-91 -192.5t-30.5 -210.5z" />
<glyph unicode="r" horiz-adv-x="602" d="M-2 0l129 680q6 29 51 321h219q-8 -113 -14 -165h6q106 182 248 182q29 0 41 -4l-47 -256q-4 0 -19.5 1t-23.5 1q-82 0 -152.5 -85t-93.5 -212l-88 -463h-256z" />
<glyph unicode="s" horiz-adv-x="649" d="M-27 39l62 180q74 -41 154 -41h8q53 2 83.5 33t30.5 80q0 74 -96 149q-127 102 -127 243.5t102.5 238t268.5 96.5q123 0 188 -37l-55 -186q-53 31 -119 30q-61 0 -97 -29.5t-36 -80.5q0 -57 76 -121q150 -115 149 -262q0 -164 -103.5 -254t-279.5 -90q-137 0 -209 51z " />
<glyph unicode="t" horiz-adv-x="579" d="M57 821l35 180h117l35 179l272 84l-51 -263h188l-32 -180h-191l-88 -461q-8 -47 -8 -86q0 -84 78 -84q6 0 30.5 1.5t38.5 3.5l-30 -191q-47 -16 -154 -16q-113 0 -171 58t-58 161q0 59 18 151l88 463h-117z" />
<glyph unicode="u" horiz-adv-x="899" d="M49 215q0 78 25 207l108 579h256l-108 -569q-18 -111 -19 -160q0 -80 62 -79q49 0 94 61t65 168l107 579h256l-127 -673q-25 -119 -51 -328h-221l8 133l-4 4q-106 -154 -260 -153q-96 0 -143.5 63.5t-47.5 167.5z" />
<glyph unicode="v" horiz-adv-x="778" d="M96 1001h271l-15 -458q-4 -70 -8 -155l-6 -130h4q16 57 88 268l174 475h256l-450 -1001h-256z" />
<glyph unicode="w" horiz-adv-x="1220" d="M102 1001h267l-25 -446q-16 -219 -29 -305h7q37 127 98 285l194 466h197l4 -460q0 -168 -14 -291h6q29 117 92 313l154 438h250l-441 -1001h-223l-14 367q0 12 -1 25q0 107 15 286h-6q-55 -195 -105 -311l-155 -367h-226z" />
<glyph unicode="x" horiz-adv-x="720" d="M-119 0l332 508l-131 493h264l31 -180q6 -37 9 -69.5t4 -60t3 -40.5h6l72 156l98 194h265l-330 -499l133 -502h-262l-33 174q-18 109 -25 178h-4l-71 -159l-97 -193h-264z" />
<glyph unicode="y" horiz-adv-x="780" d="M-76 -229q82 41 133 82q104 86 138 159q8 27 6 45l-107 944h268l7 -481q3 -116 2 -183v-54h4q27 102 76 256l151 462h258l-328 -788q-162 -377 -333 -535q-86 -80 -172 -116z" />
<glyph unicode="z" horiz-adv-x="655" d="M-70 0l27 172l295 424q84 119 147 190l2 5h-295l41 210h562l-31 -186l-285 -405q-82 -115 -151 -195v-4h329l-41 -211h-600z" />
<glyph unicode="{" horiz-adv-x="528" d="M31 506l32 168q135 0 156 112q10 53 18.5 159t18.5 163q55 297 340 297h55l-33 -162h-30q-109 -6 -135 -141q-12 -59 -20.5 -151.5t-10.5 -106.5q-27 -199 -191 -250v-4q100 -37 101 -166q0 -51 -41 -207t-41 -186q0 -96 94 -99h27l-31 -161h-45q-246 0 -246 204 q0 92 51 250q49 168 50 191q0 25 -6.5 42t-34 32.5t-78.5 15.5z" />
<glyph unicode="|" horiz-adv-x="442" d="M168 -512v2048h178v-2048h-178z" />
<glyph unicode="}" horiz-adv-x="528" d="M-84 -229l33 161h31q109 6 135 142q12 59 20 151t10 107q27 197 191 250v4q-100 37 -100 166q2 51 42.5 206.5t40.5 186.5q0 96 -94 98h-26l28 162h47q244 0 244 -205q0 -84 -49 -252q-51 -154 -51 -188q0 -90 119 -90l-31 -168q-133 0 -158 -113q-10 -53 -18 -158.5 t-19 -162.5q-55 -297 -338 -297h-57z" />
<glyph unicode="~" horiz-adv-x="1220" d="M123 412q-2 178 80 262t196 84q106 0 275 -103q82 -51 114.5 -67.5t61.5 -16.5q90 0 90 168h172q8 -166 -58.5 -257t-191.5 -91t-297 111q-127 80 -174 80q-53 0 -72.5 -43t-23.5 -127h-172z" />
<glyph unicode="&#xa1;" horiz-adv-x="483" d="M-72 -391l211 932h226l-148 -932h-289zM152 829q0 78 50 129.5t117 51.5h3q63 0 101 -44t38 -110q0 -63 -49.5 -120.5t-108.5 -57.5q-72 0 -111.5 44t-39.5 107z" />
<glyph unicode="&#xa2;" d="M152 530q0 236 119.5 402t303.5 209l39 202h152l-39 -192q80 -2 127 -31l-66 -194q-43 25 -129 24q-106 0 -181 -116.5t-75 -272.5q0 -78 41 -131t121 -53q72 0 146 24l-13 -192q-63 -25 -159 -25l-37 -198h-152l39 207q-109 18 -178 112q-59 88 -59 225z" />
<glyph unicode="&#xa3;" d="M14 0l31 166q92 37 155.5 121t82.5 174q12 96 14 119h-162l35 178h131q0 109 18 207q31 172 137.5 277.5t282.5 105.5q84 0 150 -37l-62 -199q-45 25 -106 25q-125 0 -160 -174q-16 -88 -16 -205h203l-33 -178h-180q-14 -92 -31 -142q-45 -141 -154 -219l-2 -4h422 l-43 -215h-713z" />
<glyph unicode="&#xa4;" d="M37 274l153 154q-49 92 -49 231q0 143 56 244l-160 156l115 121l135 -152q66 70 184 70h2q119 0 176 -66l142 146l112 -117l-162 -158q45 -96 45 -231q0 -131 -43 -240l160 -158l-110 -116l-146 147q-31 -31 -84 -49t-100 -18q-115 0 -184 65l-132 -147zM328 664 q0 -115 37.5 -186.5t101.5 -71.5q66 0 99.5 70.5t33.5 191.5q0 111 -34 186.5t-101 75.5h-2q-61 0 -98 -73.5t-37 -192.5z" />
<glyph unicode="&#xa5;" d="M33 338l26 137h250l23 121h-250l27 137h200l-129 598h252l35 -370q16 -160 16 -222h4q41 100 101 226l178 366h238l-355 -598h195l-27 -137h-252l-22 -121h250l-25 -137h-252l-63 -338h-234l64 338h-250z" />
<glyph unicode="&#xa6;" horiz-adv-x="442" d="M168 356h178v-716h-178v716zM168 664v716h178v-716h-178z" />
<glyph unicode="&#xa7;" horiz-adv-x="886" d="M57 -41l62 164q104 -57 211 -57q76 0 115.5 35.5t39.5 84.5q0 47 -35.5 84t-123.5 80q-102 51 -154.5 124t-52.5 149q0 184 190 315q-37 53 -37 127q0 141 105.5 236.5t277.5 95.5q129 0 222 -54l-64 -157q-80 43 -172 43q-72 0 -113 -35t-41 -86q0 -39 27 -67.5 t96 -59.5q219 -92 219 -287q0 -193 -157 -317q29 -57 28 -121q0 -164 -107.5 -261t-279.5 -97q-164 0 -256 61zM322 694q0 -88 104 -143q70 -33 125 -72q74 47 74 139.5t-90 139.5q-43 23 -119 69q-37 -18 -65.5 -56t-28.5 -75v-2z" />
<glyph unicode="&#xa8;" horiz-adv-x="776" d="M238 1268q0 57 36.5 95t90 38t88 -37t34.5 -94q0 -59 -35.5 -98t-91.5 -39h-2q-51 0 -85.5 38t-34.5 97zM588 1268q0 57 37 95t90 38t88 -37t35 -94q0 -59 -35 -98t-92 -39h-2q-51 0 -86 38t-35 97z" />
<glyph unicode="&#xa9;" horiz-adv-x="1353" d="M104 696q0 260 183.5 445.5t439.5 185.5h2q254 0 434 -185.5t180 -445.5q0 -264 -180 -449.5t-436 -185.5q-258 0 -440.5 185.5t-182.5 449.5zM229 692q0 -221 143.5 -371.5t352.5 -150.5q207 -2 350.5 150.5t143.5 373.5t-143.5 372t-350.5 151h-2q-207 0 -350.5 -152 t-143.5 -373zM383 684q0 172 115.5 276.5t281.5 104.5q70 0 134.5 -17.5t86.5 -35.5l-30 -121q-80 49 -197 49q-113 0 -178.5 -67.5t-65.5 -184.5q0 -109 66 -179.5t172 -70.5q123 0 207 49l31 -112q-102 -61 -256 -62q-166 0 -266.5 105.5t-100.5 265.5z" />
<glyph unicode="&#xaa;" horiz-adv-x="632" d="M127 733q0 188 99.5 329.5t279.5 141.5q92 0 170 -24l-76 -439q-12 -78 -16 -202h-146q0 14 1 48t1 54h-4q-63 -113 -168 -113q-70 0 -105.5 55.5t-35.5 149.5zM295 770q-4 -94 53 -94q33 0 62.5 44t42.5 97l41 244q-12 6 -37 6q-74 0 -118 -102.5t-44 -194.5z" />
<glyph unicode="&#xab;" horiz-adv-x="784" d="M29 516l266 379h199l-281 -393l164 -365h-182zM360 516l267 379h198l-280 -393l164 -365h-183z" />
<glyph unicode="&#xac;" horiz-adv-x="1220" d="M92 694v168h1057v-645h-166v477h-891z" />
<glyph unicode="&#xad;" horiz-adv-x="530" d="M57 469l37 193h408l-37 -193h-408z" />
<glyph unicode="&#xae;" horiz-adv-x="753" d="M166 1075q0 135 95 231.5t233 96.5h2q135 0 230 -96.5t95 -231.5q0 -137 -95 -233.5t-232.5 -96.5t-232.5 96.5t-95 233.5zM262 1073.5q0 -104.5 66.5 -175.5t165.5 -71q98 -2 164.5 71t66.5 177.5t-66.5 176t-164.5 71.5h-2q-98 0 -164 -72.5t-66 -177zM369 920v301 q55 12 123 12q74 0 112 -25q31 -20 31 -67q0 -23 -18.5 -41.5t-49.5 -26.5v-4q47 -14 62 -78q10 -49 18 -71h-92q-10 12 -23 63q-6 47 -51 47h-28v-110h-84zM457 1092h26q55 0 56 36q0 39 -52 39q-18 0 -30 -4v-71z" />
<glyph unicode="&#xaf;" horiz-adv-x="776" d="M307 1198l31 139h420l-33 -139h-418z" />
<glyph unicode="&#xb0;" horiz-adv-x="587" d="M160 1141q0 106 76.5 182t175.5 76h2q109 0 175 -71t66 -173q0 -113 -79.5 -182.5t-174.5 -69.5q-106 0 -173.5 68t-67.5 170zM281 1143q0 -57 35.5 -96t89.5 -39q55 0 92 39.5t37 101.5q0 59 -33 101t-94 42h-2q-49 0 -87 -44t-38 -105z" />
<glyph unicode="&#xb1;" horiz-adv-x="1220" d="M92 0v168h1057v-168h-1057zM92 639v170h440v352h175v-352h442v-170h-442v-358h-175v358h-440z" />
<glyph unicode="&#xb2;" horiz-adv-x="530" d="M80 825l24 119l142 141q72 72 103.5 107t70.5 95.5t39 107.5q0 80 -90 80q-57 0 -125 -37l-13 145q98 51 197 51q131 0 180 -59t49 -131q0 -78 -51 -164t-98 -134t-121 -114l-41 -37v-8h240l-31 -162h-475z" />
<glyph unicode="&#xb3;" horiz-adv-x="503" d="M86 850l43 137q53 -29 125 -29q63 0 102 34t39 89q0 51 -36.5 79t-102.5 28h-31l25 123h22q66 0 114 26.5t48 79.5q0 76 -84 76q-47 0 -104 -31l-4 129q74 43 176 43q109 0 158 -53t49 -119q0 -147 -154 -207v-4q53 -18 86 -64t33 -104q-2 -115 -95.5 -191.5 t-244.5 -76.5q-107 0 -164 35z" />
<glyph unicode="&#xb4;" horiz-adv-x="776" d="M406 1120l182 287h243l-249 -287h-176z" />
<glyph unicode="&#xb5;" horiz-adv-x="907" d="M-31 -393q-33 100 31 420l188 974h256l-127 -643q-33 -170 64 -170q59 0 115 97q23 35 32 90l121 626h256l-133 -682q-14 -80 -5 -106.5t48 -26.5l-59 -190q-27 -12 -74 -12q-125 0 -150 131h-6q-70 -117 -180 -117q-68 0 -96 45l-17 -82q-37 -211 -36 -354h-228z" />
<glyph unicode="&#xb6;" horiz-adv-x="886" d="M150 864q0 233 154.5 374.5t428.5 141.5q125 0 193 -10l-283 -1472h-127l264 1374h-118l-263 -1374h-127l123 643h-8q-80 2 -158.5 83.5t-78.5 239.5z" />
<glyph unicode="&#xb7;" horiz-adv-x="460" d="M74 542.5q0 73.5 50 132t116 58.5q74 0 112.5 -45t38.5 -119q0 -86 -49 -139t-121 -53h-2q-68 0 -106.5 46t-38.5 119.5z" />
<glyph unicode="&#xb8;" horiz-adv-x="776" d="M49 -381l41 105q57 -27 105 -27q31 0 53 16.5t24 46.5q0 70 -129 82l113 168h119l-70 -100q49 -12 79 -51t30 -82q0 -98 -72 -146.5t-158 -48.5q-90 0 -135 37z" />
<glyph unicode="&#xb9;" horiz-adv-x="442" d="M188 1528l215 96h166l-153 -799h-187l121 627h-4l-149 -70z" />
<glyph unicode="&#xba;" horiz-adv-x="636" d="M123 760q0 180 90 312t229 132h2q111 0 160 -70.5t49 -160.5q0 -195 -94 -320t-217 -125q-111 0 -165 68t-54 164zM291 766q0 -98 69 -98q51 0 85 95t34 204q0 96 -59 96h-2q-51 0 -89 -97.5t-38 -199.5z" />
<glyph unicode="&#xbb;" horiz-adv-x="784" d="M-29 137l281 402l-164 356h182l166 -379l-266 -379h-199zM303 137l281 402l-164 356h182l166 -379l-266 -379h-199z" />
<glyph unicode="&#xbc;" horiz-adv-x="1349" d="M106 -16l969 1364h158l-967 -1364h-160zM154 1241l215 96h166l-154 -798h-186l120 626h-4l-149 -69zM651 180l23 133l373 488h204l-90 -477h86l-26 -144h-86l-35 -180h-174l35 180h-310zM836 324h151l29 145q2 14 31 135h-5l-79 -106l-127 -170v-4z" />
<glyph unicode="&#xbd;" horiz-adv-x="1349" d="M82 -16l969 1364h157l-966 -1364h-160zM158 1241l215 96h166l-154 -798h-186l120 626h-4l-149 -69zM709 0l22 119l135 141l36 37l39 40q11 11 34.5 37.5t34.5 41.5l26 38q16 24 23.5 40t13.5 36.5t6 38.5q0 80 -88 80q-66 0 -119 -41l-12 150q98 51 199 51 q123 0 171 -59.5t48 -131.5q0 -78 -50 -162.5t-97.5 -133t-122.5 -115.5l-41 -37v-8h231l-31 -162h-458z" />
<glyph unicode="&#xbe;" horiz-adv-x="1349" d="M55 563l45 137q51 -29 123 -28q63 0 102.5 33.5t39.5 89.5q0 51 -37 78.5t-103 27.5h-28l22 123h25q66 2 112.5 27.5t46.5 78.5q0 76 -81 76q-49 0 -107 -30l-4 129q74 43 178 43q109 0 158 -53.5t49 -118.5q0 -147 -154 -207v-4q55 -18 86 -64.5t31 -103.5 q-2 -115 -95 -192t-245 -77q-103 0 -164 35zM150 -16l968 1364h156l-965 -1364h-159zM674 180l22 133l373 488h207l-90 -477h86l-27 -144h-86l-37 -180h-174l37 180h-311zM858 324h154l26 145q12 70 33 135h-4l-80 -106l-127 -170z" />
<glyph unicode="&#xbf;" horiz-adv-x="665" d="M-72 -139q0 193 199 409q115 127 135 250l10 43h232q0 -12 -4 -37q-14 -160 -168 -352q-131 -150 -131 -250q0 -51 28.5 -80.5t83.5 -29.5q84 0 148 36l6 -204q-102 -55 -240 -56q-90 0 -154.5 28t-93 73t-40 86t-11.5 84zM291 829q0 78 50 129.5t120 51.5h2q61 0 99 -44 t38 -109.5t-48 -122t-114 -56.5q-70 0 -108.5 42.5t-38.5 108.5z" />
<glyph unicode="&#xc0;" horiz-adv-x="911" d="M-74 0l559 1380h299l13 -1380h-248l4 319h-256l-121 -319h-250zM350 1710h260l152 -256h-178zM358 508h203l6 305q0 37 5.5 157t7.5 177h-5q-92 -295 -106 -332z" />
<glyph unicode="&#xc1;" horiz-adv-x="911" d="M-74 0l559 1380h299l13 -1380h-248l4 319h-256l-121 -319h-250zM358 508h203l6 305q0 37 5.5 157t7.5 177h-5q-92 -295 -106 -332zM528 1454l234 256h266l-313 -256h-187z" />
<glyph unicode="&#xc2;" horiz-adv-x="911" d="M-74 0l559 1380h299l13 -1380h-248l4 319h-256l-121 -319h-250zM358 508h203l6 305q0 37 5.5 157t7.5 177h-5q-92 -295 -106 -332zM375 1454l233 256h170l137 -256h-184l-55 121h-4l-101 -121h-196z" />
<glyph unicode="&#xc3;" horiz-adv-x="911" d="M-74 0l559 1380h299l13 -1380h-248l4 319h-256l-121 -319h-250zM358 508h203l6 305q0 37 5.5 157t7.5 177h-5q-92 -295 -106 -332zM375 1458q18 115 66 170t114 55q53 0 111 -36q47 -37 73 -37q37 0 62 82h129q-39 -223 -189 -224q-59 0 -112 33q-45 35 -72 35 q-43 0 -51 -78h-131z" />
<glyph unicode="&#xc4;" horiz-adv-x="911" d="M-74 0l559 1380h299l13 -1380h-248l4 319h-256l-121 -319h-250zM356 1591.5q0 53.5 37 92t86 38.5q51 0 86 -37.5t35 -91t-37 -92.5t-86 -39h-2q-47 0 -83 38t-36 91.5zM358 508h203l6 305q0 37 5.5 157t7.5 177h-5q-92 -295 -106 -332zM719 1591.5q0 53.5 37 92t86 38.5 q51 0 86 -37.5t35 -91t-37 -92.5t-86 -39h-2q-47 0 -83 38t-36 91.5z" />
<glyph unicode="&#xc5;" horiz-adv-x="911" d="M-74 0l559 1380h299l13 -1380h-248l4 319h-256l-121 -319h-250zM358 508h203l6 305q0 37 5.5 157t7.5 177h-5q-92 -295 -106 -332zM438 1589q0 74 58.5 128.5t156.5 54.5h2q102 0 156.5 -48.5t52.5 -121.5q0 -74 -58 -125.5t-157 -51.5q-102 0 -156.5 48t-54.5 116z M569 1593q4 -86 80 -86q41 0 62.5 26t21.5 66q0 37 -20.5 64t-61.5 27h-2q-37 0 -58.5 -29t-21.5 -68z" />
<glyph unicode="&#xc6;" horiz-adv-x="1157" d="M-123 0l655 1380h713l-37 -225h-329l-48 -352h318l-35 -217h-303l-47 -359h350l-37 -227h-577l47 375h-254l-164 -375h-252zM379 578h182l51 350q20 166 37 266h-8q-57 -145 -137 -326z" />
<glyph unicode="&#xc7;" horiz-adv-x="792" d="M78 461q0 492 264 760q170 172 410 172q119 0 157 -29l-71 -225q-47 20 -119 20q-117 0 -207 -115q-162 -205 -162 -528q0 -297 187 -297q86 0 141 23l-10 -226q-66 -25 -148 -24l-55 -82q51 -10 80.5 -48t29.5 -87q0 -96 -71.5 -143.5t-159.5 -47.5q-76 0 -131 37 l39 109q47 -27 104 -27q31 0 54.5 15.5t23.5 45.5q0 61 -131 74l100 154q-98 12 -167.5 64.5t-101.5 128t-44 142t-12 134.5z" />
<glyph unicode="&#xc8;" horiz-adv-x="792" d="M29 0l264 1380h577l-45 -225h-317l-68 -328h310l-43 -217h-304l-75 -383h348l-45 -227h-602zM299 1710h258l152 -256h-177z" />
<glyph unicode="&#xc9;" horiz-adv-x="792" d="M29 0l264 1380h577l-45 -225h-317l-68 -328h310l-43 -217h-304l-75 -383h348l-45 -227h-602zM475 1454l234 256h266l-313 -256h-187z" />
<glyph unicode="&#xca;" horiz-adv-x="792" d="M29 0l264 1380h577l-45 -225h-317l-68 -328h310l-43 -217h-304l-75 -383h348l-45 -227h-602zM334 1454l233 256h170l135 -256h-182l-55 121h-4l-103 -121h-194z" />
<glyph unicode="&#xcb;" horiz-adv-x="792" d="M29 0l264 1380h577l-45 -225h-317l-68 -328h310l-43 -217h-304l-75 -383h348l-45 -227h-602zM305 1591.5q0 53.5 37 92t86 38.5q51 0 86 -37.5t35 -91t-37 -92.5t-86 -39h-2q-47 0 -83 38t-36 91.5zM668 1591.5q0 53.5 36.5 92t86.5 38.5q51 0 85.5 -37.5t34.5 -91 t-36.5 -92.5t-86.5 -39h-2q-47 0 -82.5 38t-35.5 91.5z" />
<glyph unicode="&#xcc;" horiz-adv-x="501" d="M29 0l264 1380h256l-264 -1380h-256zM129 1710h260l152 -256h-176z" />
<glyph unicode="&#xcd;" horiz-adv-x="501" d="M29 0l264 1380h256l-264 -1380h-256zM322 1454l233 256h266l-315 -256h-184z" />
<glyph unicode="&#xce;" horiz-adv-x="501" d="M29 0l264 1380h256l-264 -1380h-256zM162 1454l233 256h168l137 -256h-182l-55 121h-4l-103 -121h-194z" />
<glyph unicode="&#xcf;" horiz-adv-x="501" d="M29 0l264 1380h256l-264 -1380h-256zM133 1591.5q0 53.5 38 92t87 38.5t84 -37.5t35 -91t-36 -92.5t-87 -39h-2q-47 0 -83 38t-36 91.5zM496 1591.5q0 53.5 36.5 92t85.5 38.5q51 0 86 -37.5t35 -91t-35.5 -92.5t-87.5 -39h-2q-47 0 -82.5 38t-35.5 91.5z" />
<glyph unicode="&#xd0;" horiz-adv-x="991" d="M29 621l34 186h123l105 555q113 25 264 24q242 0 348 -145q98 -137 94 -367q0 -256 -88 -453.5t-207 -295.5q-158 -131 -417 -131q-145 0 -248 26l115 601h-123zM322 221q27 -10 67 -10q66 0 130.5 50t107.5 140q109 227 108 496q0 121 -40 202t-130 81q-41 0 -59 -9 l-70 -364h156l-37 -186h-156z" />
<glyph unicode="&#xd1;" horiz-adv-x="1030" d="M29 0l264 1380h233l107 -549q55 -289 67 -428h5q53 444 86 619l67 358h221l-264 -1380h-219l-111 514q-49 223 -69 459h-4q-47 -362 -95 -606l-69 -367h-219zM446 1475q18 115 67.5 170t115.5 55q53 0 110 -37q47 -37 72 -37q37 0 61 82h129q-37 -223 -186 -223 q-63 0 -113 33q-45 33 -71 32q-45 0 -53 -75h-132z" />
<glyph unicode="&#xd2;" horiz-adv-x="985" d="M68 434q0 227 75.5 465t210.5 371q131 127 303 127q336 0 336 -439q0 -233 -73.5 -472.5t-204.5 -370.5t-303 -131h-2q-104 0 -178 47t-107 123.5t-45 143t-12 136.5zM332 410q0 -201 114 -201h3q47 0 83 41q90 90 143.5 331.5t53.5 397.5q0 193 -106 192q-49 0 -93 -43 q-88 -90 -143 -316t-55 -402zM369 1710h258l153 -256h-178z" />
<glyph unicode="&#xd3;" horiz-adv-x="985" d="M68 434q0 227 75.5 465t210.5 371q131 127 303 127q336 0 336 -439q0 -233 -73.5 -472.5t-204.5 -370.5t-303 -131h-2q-104 0 -178 47t-107 123.5t-45 143t-12 136.5zM332 410q0 -201 114 -201h3q47 0 83 41q90 90 143.5 331.5t53.5 397.5q0 193 -106 192q-49 0 -93 -43 q-88 -90 -143 -316t-55 -402zM547 1454l233 256h269l-316 -256h-186z" />
<glyph unicode="&#xd4;" horiz-adv-x="985" d="M68 434q0 227 75.5 465t210.5 371q131 127 303 127q336 0 336 -439q0 -233 -73.5 -472.5t-204.5 -370.5t-303 -131h-2q-104 0 -178 47t-107 123.5t-45 143t-12 136.5zM332 410q0 -201 114 -201h3q47 0 83 41q90 90 143.5 331.5t53.5 397.5q0 193 -106 192q-49 0 -93 -43 q-88 -90 -143 -316t-55 -402zM399 1454l234 256h170l137 -256h-184l-56 121h-4l-100 -121h-197z" />
<glyph unicode="&#xd5;" horiz-adv-x="985" d="M68 434q0 227 75.5 465t210.5 371q131 127 303 127q336 0 336 -439q0 -233 -73.5 -472.5t-204.5 -370.5t-303 -131h-2q-104 0 -178 47t-107 123.5t-45 143t-12 136.5zM332 410q0 -201 114 -201h3q47 0 83 41q90 90 143.5 331.5t53.5 397.5q0 193 -106 192q-49 0 -93 -43 q-88 -90 -143 -316t-55 -402zM401 1475q18 115 66.5 170t114.5 55q57 0 110 -37q47 -37 74 -37q37 0 61 82h129q-37 -223 -188 -223q-59 0 -113 33q-43 33 -71 32q-43 0 -52 -75h-131z" />
<glyph unicode="&#xd6;" horiz-adv-x="985" d="M68 434q0 227 75.5 465t210.5 371q131 127 303 127q336 0 336 -439q0 -233 -73.5 -472.5t-204.5 -370.5t-303 -131h-2q-104 0 -178 47t-107 123.5t-45 143t-12 136.5zM332 410q0 -201 114 -201h3q47 0 83 41q90 90 143.5 331.5t53.5 397.5q0 193 -106 192q-49 0 -93 -43 q-88 -90 -143 -316t-55 -402zM383 1591.5q0 53.5 37 92t86 38.5q51 0 86 -37.5t35 -91t-37 -92.5t-86 -39h-2q-47 0 -83 38t-36 91.5zM745 1591.5q0 53.5 37 92t86 38.5q51 0 86 -37.5t35 -91t-37 -92.5t-86 -39h-2q-47 0 -83 38t-36 91.5z" />
<glyph unicode="&#xd7;" horiz-adv-x="1220" d="M100 954l113 123l418 -420l403 420l121 -123l-412 -417l412 -412l-121 -125l-409 414l-406 -414l-113 125l406 410z" />
<glyph unicode="&#xd8;" horiz-adv-x="958" d="M4 -35l117 195q-66 102 -66 291q0 240 75 461t198 345q135 139 309 140q129 0 201 -68l88 156l114 -55l-116 -201q51 -88 55 -256q4 -250 -65.5 -477.5t-188.5 -358.5q-137 -154 -324 -153q-129 0 -196 73l-99 -161zM299 440h14l385 674q-23 66 -100 66 q-80 0 -145.5 -107.5t-104.5 -263.5q-39 -150 -49 -369zM336 266q23 -66 106 -65q145 0 240 368q39 152 51 363h-12z" />
<glyph unicode="&#xd9;" horiz-adv-x="995" d="M92 309q0 74 25 217l162 854h258l-172 -897q-18 -92 -19 -151q0 -121 103 -121q66 0 106.5 57.5t69.5 204.5l174 907h256l-166 -870q-49 -262 -160 -394t-309 -132q-166 0 -247 84.5t-81 240.5zM393 1710h258l152 -256h-176z" />
<glyph unicode="&#xda;" horiz-adv-x="995" d="M92 309q0 74 25 217l162 854h258l-172 -897q-18 -92 -19 -151q0 -121 103 -121q66 0 106.5 57.5t69.5 204.5l174 907h256l-166 -870q-49 -262 -160 -394t-309 -132q-166 0 -247 84.5t-81 240.5zM553 1454l233 256h269l-316 -256h-186z" />
<glyph unicode="&#xdb;" horiz-adv-x="995" d="M92 309q0 74 25 217l162 854h258l-172 -897q-18 -92 -19 -151q0 -121 103 -121q66 0 106.5 57.5t69.5 204.5l174 907h256l-166 -870q-49 -262 -160 -394t-309 -132q-166 0 -247 84.5t-81 240.5zM416 1454l233 256h170l135 -256h-182l-55 121h-4l-101 -121h-196z" />
<glyph unicode="&#xdc;" horiz-adv-x="995" d="M92 309q0 74 25 217l162 854h258l-172 -897q-18 -92 -19 -151q0 -121 103 -121q66 0 106.5 57.5t69.5 204.5l174 907h256l-166 -870q-49 -262 -160 -394t-309 -132q-166 0 -247 84.5t-81 240.5zM403 1591.5q0 53.5 37 92t86 38.5q51 0 86 -37.5t35 -91t-37 -92.5t-86 -39 h-2q-47 0 -83 38t-36 91.5zM766 1591.5q0 53.5 37 92t86 38.5q51 0 86 -37.5t35 -91t-37 -92.5t-88 -39h-2q-47 0 -82 38t-35 91.5z" />
<glyph unicode="&#xdd;" horiz-adv-x="798" d="M137 1380h275l28 -329q10 -150 11 -295h4q61 170 110 278l160 346h268l-467 -854l-98 -526h-256l100 528zM469 1454l233 256h267l-316 -256h-184z" />
<glyph unicode="&#xde;" horiz-adv-x="919" d="M29 0l264 1380h250l-47 -235q53 4 75 4q166 0 263 -98q88 -90 88 -234q0 -246 -150.5 -390t-363.5 -144q-14 0 -39 1t-35 1l-55 -285h-250zM373 494q18 -2 53 -2q115 0 178.5 88t63.5 200q0 160 -148 160q-39 0 -63 -6z" />
<glyph unicode="&#xdf;" horiz-adv-x="978" d="M-2 0l166 872q53 276 169 419t339 143q90 0 156.5 -29t100.5 -75t49 -93t15 -94q0 -137 -82 -215q-127 -68 -127 -164q0 -70 50 -148q76 -127 75 -258q0 -180 -110.5 -277t-278.5 -97q-117 0 -176 26l53 189q51 -25 112.5 -25t102.5 39t41 106q0 74 -47 158 q-45 86 -61.5 131t-16.5 101q0 90 52.5 160.5t126.5 111.5q43 53 43 147q-2 41 -26 74t-77 33q-158 0 -215 -303l-178 -932h-256z" />
<glyph unicode="&#xe0;" horiz-adv-x="872" d="M33 285q0 96 18.5 193t62.5 195.5t109.5 174.5t167 123t223.5 47q160 0 263 -41l-111 -557q-45 -213 -41 -420h-221q0 25 3 80t5 88h-6q-111 -184 -256 -184q-106 0 -161.5 82t-55.5 219zM283 346q0 -152 75 -151q51 0 97.5 79.5t74.5 217.5l66 329q-31 6 -53 6 q-78 0 -140.5 -92t-90 -198.5t-29.5 -190.5zM362 1407h232l98 -287h-168z" />
<glyph unicode="&#xe1;" horiz-adv-x="872" d="M33 285q0 96 18.5 193t62.5 195.5t109.5 174.5t167 123t223.5 47q160 0 263 -41l-111 -557q-45 -213 -41 -420h-221q0 25 3 80t5 88h-6q-111 -184 -256 -184q-106 0 -161.5 82t-55.5 219zM283 346q0 -152 75 -151q51 0 97.5 79.5t74.5 217.5l66 329q-31 6 -53 6 q-78 0 -140.5 -92t-90 -198.5t-29.5 -190.5zM479 1120l185 287h243l-250 -287h-178z" />
<glyph unicode="&#xe2;" horiz-adv-x="872" d="M33 285q0 96 18.5 193t62.5 195.5t109.5 174.5t167 123t223.5 47q160 0 263 -41l-111 -557q-45 -213 -41 -420h-221q0 25 3 80t5 88h-6q-111 -184 -256 -184q-106 0 -161.5 82t-55.5 219zM283 346q0 -152 75 -151q51 0 97.5 79.5t74.5 217.5l66 329q-31 6 -53 6 q-78 0 -140.5 -92t-90 -198.5t-29.5 -190.5zM348 1120l221 287h160l121 -287h-166l-51 144h-4l-105 -144h-176z" />
<glyph unicode="&#xe3;" horiz-adv-x="872" d="M33 285q0 96 18.5 193t62.5 195.5t109.5 174.5t167 123t223.5 47q160 0 263 -41l-111 -557q-45 -213 -41 -420h-221q0 25 3 80t5 88h-6q-111 -184 -256 -184q-106 0 -161.5 82t-55.5 219zM283 346q0 -152 75 -151q51 0 97.5 79.5t74.5 217.5l66 329q-31 6 -53 6 q-78 0 -140.5 -92t-90 -198.5t-29.5 -190.5zM338 1151q27 231 168 231q53 0 106 -36q55 -39 66 -39q29 0 49 82h119q-27 -223 -166 -224q-51 0 -100 33q-51 41 -72 41q-33 0 -43 -88h-127z" />
<glyph unicode="&#xe4;" horiz-adv-x="872" d="M33 285q0 96 18.5 193t62.5 195.5t109.5 174.5t167 123t223.5 47q160 0 263 -41l-111 -557q-45 -213 -41 -420h-221q0 25 3 80t5 88h-6q-111 -184 -256 -184q-106 0 -161.5 82t-55.5 219zM283 346q0 -152 75 -151q51 0 97.5 79.5t74.5 217.5l66 329q-31 6 -53 6 q-78 0 -140.5 -92t-90 -198.5t-29.5 -190.5zM295 1268q0 57 37 95t88 38q55 0 89 -36t34 -95.5t-35 -98t-90 -38.5h-2q-51 0 -86 38t-35 97zM645 1268q0 57 37 95t90 38t87 -37t34 -94q0 -59 -35 -98t-90 -39h-2q-51 0 -86 38t-35 97z" />
<glyph unicode="&#xe5;" horiz-adv-x="872" d="M33 285q0 96 18.5 193t62.5 195.5t109.5 174.5t167 123t223.5 47q160 0 263 -41l-111 -557q-45 -213 -41 -420h-221q0 25 3 80t5 88h-6q-111 -184 -256 -184q-106 0 -161.5 82t-55.5 219zM283 346q0 -152 75 -151q51 0 97.5 79.5t74.5 217.5l66 329q-31 6 -53 6 q-78 0 -140.5 -92t-90 -198.5t-29.5 -190.5zM389 1282q0 84 56.5 139.5t152.5 55.5h2q94 0 146.5 -50.5t52.5 -134.5q0 -82 -57.5 -136t-147.5 -54q-96 0 -150.5 51t-54.5 129zM508 1284q0 -35 20.5 -63.5t63.5 -28.5q45 0 67.5 30.5t22.5 67.5q0 96 -88 96h-2 q-41 0 -62.5 -31.5t-21.5 -70.5z" />
<glyph unicode="&#xe6;" horiz-adv-x="1204" d="M-2 240q0 199 149.5 300t346.5 91l8 47q10 63 -26 106t-105 43q-98 0 -203 -57l-35 174q127 74 275 74q203 0 258 -158h6q109 158 286 158q119 0 185.5 -74t66.5 -180q0 -174 -133 -258t-366 -72q-18 -115 0 -162q37 -90 168 -90q86 0 198 49l15 -188q-109 -59 -291 -59 q-90 0 -164 43t-105 120h-6q-100 -164 -286 -163q-113 0 -177.5 76t-64.5 180zM227 276q0 -41 22.5 -69.5t57.5 -28.5q102 0 135 160l25 125q-98 6 -169 -39.5t-71 -147.5zM737 606q244 -14 244 125v2q0 35 -18.5 60.5t-57.5 25.5q-59 0 -106.5 -63.5t-61.5 -149.5z" />
<glyph unicode="&#xe7;" horiz-adv-x="634" d="M41 348q0 274 153.5 471t385.5 197q84 0 125 -19l-64 -211q-37 12 -72 13q-111 0 -191.5 -126t-80.5 -288q0 -86 34 -137t95 -51q35 0 125 22l-19 -203q-53 -23 -126 -24l-56 -82q49 -12 80 -51t31 -82q0 -98 -73 -145.5t-161 -47.5q-86 0 -133 35l43 107q51 -29 103 -29 q31 0 54 16.5t21 46.5q4 70 -127 82l101 152q-123 23 -185.5 122t-62.5 232z" />
<glyph unicode="&#xe8;" horiz-adv-x="786" d="M41 365q0 113 30.5 225t89 209.5t153 158t208.5 60.5q129 0 196.5 -80t69.5 -193q0 -195 -137 -284.5t-362 -83.5q-4 -72 22 -117q43 -72 140 -72q100 0 202 50l17 -195q-133 -55 -289 -55q-176 0 -258 102.5t-82 274.5zM313 569q106 -4 177 36t71 116v2q0 90 -72 90 q-57 0 -105 -67.5t-71 -176.5zM315 1407h232l98 -287h-168z" />
<glyph unicode="&#xe9;" horiz-adv-x="786" d="M41 365q0 113 30.5 225t89 209.5t153 158t208.5 60.5q129 0 196.5 -80t69.5 -193q0 -195 -137 -284.5t-362 -83.5q-4 -72 22 -117q43 -72 140 -72q100 0 202 50l17 -195q-133 -55 -289 -55q-176 0 -258 102.5t-82 274.5zM313 569q106 -4 177 36t71 116v2q0 90 -72 90 q-57 0 -105 -67.5t-71 -176.5zM442 1120l185 287h243l-249 -287h-179z" />
<glyph unicode="&#xea;" horiz-adv-x="786" d="M41 365q0 113 30.5 225t89 209.5t153 158t208.5 60.5q129 0 196.5 -80t69.5 -193q0 -195 -137 -284.5t-362 -83.5q-4 -72 22 -117q43 -72 140 -72q100 0 202 50l17 -195q-133 -55 -289 -55q-176 0 -258 102.5t-82 274.5zM293 1120l221 287h160l121 -287h-166l-51 144h-5 l-104 -144h-176zM313 569q106 -4 177 36t71 116v2q0 90 -72 90q-57 0 -105 -67.5t-71 -176.5z" />
<glyph unicode="&#xeb;" horiz-adv-x="786" d="M41 365q0 113 30.5 225t89 209.5t153 158t208.5 60.5q129 0 196.5 -80t69.5 -193q0 -195 -137 -284.5t-362 -83.5q-4 -72 22 -117q43 -72 140 -72q100 0 202 50l17 -195q-133 -55 -289 -55q-176 0 -258 102.5t-82 274.5zM283 1268q0 57 36.5 95t88.5 38q55 0 88.5 -36 t33.5 -95.5t-34.5 -98t-89.5 -38.5h-3q-51 0 -85.5 38t-34.5 97zM313 569q106 -4 177 36t71 116v2q0 90 -72 90q-57 0 -105 -67.5t-71 -176.5zM633 1268q0 57 37 95t88 38q55 0 89 -36t34 -95.5t-35 -98t-90 -38.5h-2q-51 0 -86 38t-35 97z" />
<glyph unicode="&#xec;" horiz-adv-x="446" d="M-2 0l192 1001h256l-192 -1001h-256zM104 1407h234l96 -287h-168z" />
<glyph unicode="&#xed;" horiz-adv-x="446" d="M-2 0l192 1001h256l-192 -1001h-256zM240 1120l184 287h242l-250 -287h-176z" />
<glyph unicode="&#xee;" horiz-adv-x="446" d="M-2 0l192 1001h256l-192 -1001h-256zM92 1120l221 287h160l121 -287h-166l-51 144h-4l-105 -144h-176z" />
<glyph unicode="&#xef;" horiz-adv-x="446" d="M-2 0l192 1001h256l-192 -1001h-256zM74 1268q0 57 35.5 95t89 38t88.5 -37t35 -94q0 -59 -35 -98t-90 -39h-2q-51 0 -86 38t-35 97zM424 1268q0 57 37 95t88 38q55 0 89 -36t34 -95.5t-35 -98t-90 -38.5h-2q-51 0 -86 38t-35 97z" />
<glyph unicode="&#xf0;" horiz-adv-x="858" d="M39 356q0 223 107.5 414t302.5 217q63 12 116 -12l-2 12q-16 86 -53 143l-223 -110l-49 96l213 103q-35 43 -115 118l151 121q104 -63 164 -149l176 92l45 -98l-163 -80q119 -182 118 -467q0 -317 -129 -544.5t-333 -227.5q-326 -1 -326 372zM293 317q0 -141 76 -141h2 q129 0 184 367q23 141 23 190q-4 82 -80 82q-61 0 -110.5 -83t-73 -196t-21.5 -219z" />
<glyph unicode="&#xf1;" horiz-adv-x="907" d="M-2 0l129 676q18 90 53 325h219l-10 -129h4q106 145 271 146q100 0 147 -60.5t47 -158.5q0 -72 -24 -191l-115 -608h-256l119 623q12 70 12 106q0 80 -64 80q-49 0 -99 -72.5t-77 -206.5l-100 -530h-256zM330 1151q27 231 166 231q51 0 108 -36q51 -39 64 -39q29 0 49 82 h121q-31 -223 -168 -224q-51 0 -101 33q-51 41 -69 41q-33 0 -45 -88h-125z" />
<glyph unicode="&#xf2;" horiz-adv-x="854" d="M39 330q0 172 57.5 327.5t172 258t259.5 102.5q291 0 291 -350q0 -164 -52 -317.5t-163.5 -260t-255.5 -106.5h-2q-90 0 -153.5 31.5t-95 87t-45 111t-13.5 116.5zM293 342q0 -49 3 -77.5t21.5 -57.5t55.5 -29h2q84 0 138 178.5t54 341.5q0 125 -80 125q-78 0 -137 -168 t-57 -313zM311 1407h234l96 -287h-166z" />
<glyph unicode="&#xf3;" horiz-adv-x="854" d="M39 330q0 172 57.5 327.5t172 258t259.5 102.5q291 0 291 -350q0 -164 -52 -317.5t-163.5 -260t-255.5 -106.5h-2q-90 0 -153.5 31.5t-95 87t-45 111t-13.5 116.5zM293 342q0 -49 3 -77.5t21.5 -57.5t55.5 -29h2q84 0 138 178.5t54 341.5q0 125 -80 125q-78 0 -137 -168 t-57 -313zM422 1120l184 287h244l-250 -287h-178z" />
<glyph unicode="&#xf4;" horiz-adv-x="854" d="M39 330q0 172 57.5 327.5t172 258t259.5 102.5q291 0 291 -350q0 -164 -52 -317.5t-163.5 -260t-255.5 -106.5h-2q-90 0 -153.5 31.5t-95 87t-45 111t-13.5 116.5zM293 342q0 -49 3 -77.5t21.5 -57.5t55.5 -29h2q84 0 138 178.5t54 341.5q0 125 -80 125q-78 0 -137 -168 t-57 -313zM299 1120l221 287h160l121 -287h-166l-51 144h-4l-105 -144h-176z" />
<glyph unicode="&#xf5;" horiz-adv-x="854" d="M39 330q0 172 57.5 327.5t172 258t259.5 102.5q291 0 291 -350q0 -164 -52 -317.5t-163.5 -260t-255.5 -106.5h-2q-90 0 -153.5 31.5t-95 87t-45 111t-13.5 116.5zM293 342q0 -49 3 -77.5t21.5 -57.5t55.5 -29h2q84 0 138 178.5t54 341.5q0 125 -80 125q-78 0 -137 -168 t-57 -313zM303 1151q27 231 166 231q51 0 109 -36q51 -39 63 -39q33 0 49 82h121q-31 -223 -166 -224q-55 0 -100 33q-53 41 -72 41q-33 0 -45 -88h-125z" />
<glyph unicode="&#xf6;" horiz-adv-x="854" d="M39 330q0 172 57.5 327.5t172 258t259.5 102.5q291 0 291 -350q0 -164 -52 -317.5t-163.5 -260t-255.5 -106.5h-2q-90 0 -153.5 31.5t-95 87t-45 111t-13.5 116.5zM279 1268q0 57 35.5 95t89 38t88 -37t34.5 -94q0 -59 -34.5 -98t-92.5 -39h-2q-49 0 -83.5 38t-34.5 97z M293 342q0 -49 3 -77.5t21.5 -57.5t55.5 -29h2q84 0 138 178.5t54 341.5q0 125 -80 125q-78 0 -137 -168t-57 -313zM629 1268q0 57 35.5 95t89 38t88.5 -37t35 -94q0 -59 -35 -98t-90 -39h-2q-51 0 -86 38t-35 97z" />
<glyph unicode="&#xf7;" horiz-adv-x="1220" d="M92 463v168h1057v-168h-1057zM500 194.5q0 53.5 34.5 90.5t86.5 37q53 0 85.5 -36t32.5 -91.5t-30.5 -90t-87.5 -34.5h-3q-53 0 -85.5 35.5t-32.5 89zM500 897q0 55 33.5 91t87.5 36q55 0 86.5 -36t31.5 -91t-30.5 -90t-87.5 -35h-3q-53 0 -85.5 36t-32.5 89z" />
<glyph unicode="&#xf8;" horiz-adv-x="856" d="M-14 -12l102 143q-49 92 -49 207q0 264 135 472t344 208q113 0 180 -53l93 120l90 -61l-107 -143q45 -94 45 -213q0 -272 -133 -478t-330 -206q-127 0 -194 59l-96 -127zM289 365l6 -7l264 418q-14 55 -74 55q-76 0 -127 -118.5t-61 -243.5q-4 -34 -8 -104zM307 231 q10 -61 72 -61q72 0 121 109.5t61 238.5q0 18 4 51t4 52h-8z" />
<glyph unicode="&#xf9;" horiz-adv-x="899" d="M49 215q0 78 25 207l108 579h256l-108 -569q-18 -111 -19 -160q0 -80 62 -79q49 0 94 61t65 168l107 579h256l-127 -673q-25 -119 -51 -328h-221l8 133l-4 4q-106 -154 -260 -153q-96 0 -143.5 63.5t-47.5 167.5zM336 1407h233l97 -287h-166z" />
<glyph unicode="&#xfa;" horiz-adv-x="899" d="M49 215q0 78 25 207l108 579h256l-108 -569q-18 -111 -19 -160q0 -80 62 -79q49 0 94 61t65 168l107 579h256l-127 -673q-25 -119 -51 -328h-221l8 133l-4 4q-106 -154 -260 -153q-96 0 -143.5 63.5t-47.5 167.5zM453 1120l182 287h244l-250 -287h-176z" />
<glyph unicode="&#xfb;" horiz-adv-x="899" d="M49 215q0 78 25 207l108 579h256l-108 -569q-18 -111 -19 -160q0 -80 62 -79q49 0 94 61t65 168l107 579h256l-127 -673q-25 -119 -51 -328h-221l8 133l-4 4q-106 -154 -260 -153q-96 0 -143.5 63.5t-47.5 167.5zM317 1120l222 287h159l121 -287h-166l-51 144h-4 l-104 -144h-177z" />
<glyph unicode="&#xfc;" horiz-adv-x="899" d="M49 215q0 78 25 207l108 579h256l-108 -569q-18 -111 -19 -160q0 -80 62 -79q49 0 94 61t65 168l107 579h256l-127 -673q-25 -119 -51 -328h-221l8 133l-4 4q-106 -154 -260 -153q-96 0 -143.5 63.5t-47.5 167.5zM279 1268q0 57 35.5 95t89 38t88 -37t34.5 -94 q0 -59 -34.5 -98t-90.5 -39h-2q-51 0 -85.5 38t-34.5 97zM629 1268q0 57 35.5 95t89.5 38q55 0 89 -36t34 -95.5t-35 -98t-90 -38.5h-2q-51 0 -86 38t-35 97z" />
<glyph unicode="&#xfd;" horiz-adv-x="780" d="M-76 -229q82 41 133 82q104 86 138 159q8 27 6 45l-107 944h268l7 -481q4 -174 2 -237h4q27 102 76 256l151 462h258l-328 -788q-162 -377 -333 -535q-86 -80 -172 -116zM403 1120l185 287h241l-249 -287h-177z" />
<glyph unicode="&#xfe;" horiz-adv-x="888" d="M-76 -393l336 1767h254l-100 -500h4q98 143 227 144q106 0 157.5 -84t49.5 -223q-6 -305 -144.5 -516t-322.5 -211q-84 0 -131 18h-4l-74 -395h-252zM283 188q29 -23 75 -22q72 0 128.5 93t80 203.5t23.5 199.5q0 45 -4 70.5t-20.5 47t-49.5 21.5q-49 0 -97 -69.5 t-73 -196.5z" />
<glyph unicode="&#xff;" horiz-adv-x="780" d="M-76 -229q82 41 133 82q104 86 138 159q8 27 6 45l-107 944h268l7 -481q4 -174 2 -237h4q27 102 76 256l151 462h258l-328 -788q-162 -377 -333 -535q-86 -80 -172 -116zM219 1268q0 57 36 95t89 38t88 -37t35 -94q0 -59 -35 -98t-90 -39h-2q-51 0 -86 38t-35 97z M569 1268q0 57 37 95t88 38q55 0 89 -36t34 -95.5t-34.5 -98t-90.5 -38.5h-2q-51 0 -86 38t-35 97z" />
<glyph unicode="&#x152;" horiz-adv-x="1308" d="M70 465q0 156 38.5 315.5t112.5 300t198 228.5t275 88q55 0 99 -6q76 -10 90 -11h503l-36 -225h-332l-57 -328h303l-33 -217h-316l-69 -383h346l-37 -227h-518q-16 0 -52 -5t-42 -5q-61 -6 -84 -6q-389 0 -389 481zM336 485q0 -276 170 -276q37 0 82 12l176 934 q-37 16 -92 16q-92 0 -172 -108.5t-122 -265t-42 -312.5z" />
<glyph unicode="&#x153;" horiz-adv-x="1292" d="M39 340q0 285 135 481.5t330 196.5q188 0 237 -172h4q47 78 127 125t162 47q117 0 186.5 -78t69.5 -186q0 -195 -138 -290t-361 -87q-4 -76 24 -125q49 -74 146 -70q82 2 196 51l12 -196q-100 -53 -262 -53q-211 0 -284 172h-5q-45 -82 -119.5 -127t-160.5 -45 q-147 0 -223 102t-76 254zM291 340q0 -162 86 -162h2q88 0 138 171t50 339q0 137 -82 137t-138 -156.5t-56 -328.5zM815 569q98 -6 173 34t75 114v2q0 96 -80 96q-55 0 -100 -68.5t-68 -177.5z" />
<glyph unicode="&#x178;" horiz-adv-x="798" d="M137 1380h275l28 -329q10 -150 11 -295h4q61 170 110 278l160 346h268l-467 -854l-98 -526h-256l100 528zM289 1591.5q0 53.5 36.5 92t86.5 38.5q51 0 85.5 -37.5t34.5 -91t-36.5 -92.5t-85.5 -39h-2q-47 0 -83 38t-36 91.5zM651 1591.5q0 53.5 37 92t86 38.5 q51 0 86 -37.5t35 -91t-37 -92.5t-88 -39h-2q-47 0 -82 38t-35 91.5z" />
<glyph unicode="&#x2c6;" horiz-adv-x="776" d="M260 1120l221 287h158l123 -287h-166l-51 144h-4l-105 -144h-176z" />
<glyph unicode="&#x2dc;" horiz-adv-x="776" d="M285 1151q27 231 166 231q51 0 108 -36q51 -39 64 -39q29 0 49 82h121q-31 -223 -168 -224q-51 0 -101 33q-51 41 -69 41q-33 0 -45 -88h-125z" />
<glyph unicode="&#x2013;" horiz-adv-x="1024" d="M51 440l37 185h899l-35 -185h-901z" />
<glyph unicode="&#x2014;" horiz-adv-x="2048" d="M51 440l37 185h1923l-35 -185h-1925z" />
<glyph unicode="&#x2018;" horiz-adv-x="364" d="M80 866q160 326 307 516l156 19q-164 -309 -232 -514z" />
<glyph unicode="&#x2019;" horiz-adv-x="364" d="M76 866q166 313 231 514l232 21q-160 -326 -308 -516z" />
<glyph unicode="&#x201a;" horiz-adv-x="364" d="M-137 -223q160 303 229 512l234 20q-158 -322 -308 -514z" />
<glyph unicode="&#x201c;" horiz-adv-x="667" d="M72 866q160 326 307 516l156 19q-164 -309 -232 -514zM391 866q150 313 307 516l154 19q-160 -299 -229 -514z" />
<glyph unicode="&#x201d;" horiz-adv-x="667" d="M68 866q166 313 231 514l231 21q-160 -326 -307 -516zM387 866q168 315 229 514l234 21q-156 -319 -309 -516z" />
<glyph unicode="&#x201e;" horiz-adv-x="667" d="M-137 -223q160 303 229 512l234 20q-158 -322 -308 -514zM180 -223q166 313 232 512l231 20q-147 -309 -307 -514z" />
<glyph unicode="&#x2022;" horiz-adv-x="587" d="M96 539q0 100 62.5 162.5t156.5 62.5q90 0 152.5 -61.5t62.5 -161.5q0 -102 -60 -163t-157 -61h-2q-90 0 -152.5 62t-62.5 160z" />
<glyph unicode="&#x2026;" horiz-adv-x="2048" d="M117 149.5q0 73.5 49 132t115 58.5q74 0 113.5 -45t39.5 -119q0 -86 -50 -139t-120 -53h-2q-70 0 -107.5 46t-37.5 119.5zM801 149.5q0 73.5 49 132t115 58.5q74 0 113.5 -45t39.5 -119q0 -86 -50 -139t-120 -53h-2q-70 0 -107.5 46t-37.5 119.5zM1485 149.5 q0 73.5 49 132t115 58.5q74 0 113.5 -45t39.5 -119q0 -86 -50 -139t-120 -53h-2q-70 0 -107.5 46t-37.5 119.5z" />
<glyph unicode="&#x2039;" horiz-adv-x="452" d="M29 516l266 379h199l-281 -393l164 -365h-182z" />
<glyph unicode="&#x203a;" horiz-adv-x="452" d="M-29 137l281 402l-164 356h182l166 -379l-266 -379h-199z" />
<glyph unicode="&#x20ac;" d="M57 487l29 138h102q12 66 21 96h-105l27 137h113q70 203 221 346.5t354 143.5q113 0 170 -35l-65 -205q-47 18 -107 18q-113 0 -194.5 -79.5t-120.5 -188.5h303l-29 -137h-313q-4 -8 -21 -96h316l-29 -138h-299q-2 -72 10.5 -130t56.5 -105t117 -47q78 0 140 28l12 -204 q-78 -45 -207 -45q-207 0 -297 142t-84 361h-121z" />
<glyph unicode="&#x2122;" horiz-adv-x="1177" d="M205 1247v133h389v-133h-117v-426h-158v426h-114zM631 821l26 559h228l26 -133l23 -180h2q2 25 27 178l30 135h213l25 -559h-144l-8 246q0 131 -2 217h-6q-14 -94 -35 -217l-41 -236h-143l-35 238q-16 137 -26 215h-7q-6 -209 -6 -217l-10 -246h-137z" />
<glyph unicode="&#xe000;" horiz-adv-x="1000" d="M0 1000h1000v-1000h-1000v1000z" />
<glyph unicode="&#xfb01;" horiz-adv-x="962" d="M37 0l158 821h-136l33 180h135l9 50q12 61 39.5 120.5t81 123t147.5 101.5t217 38q154 0 240 -41l-62 -197q-86 33 -186 33q-193 0 -224 -193l-6 -35h484l-191 -1001h-256l158 821h-229l-156 -821h-256z" />
<glyph unicode="&#xfb02;" horiz-adv-x="962" d="M37 0l158 821h-136l33 180h135l9 39q39 199 153 291q125 102 342 103q209 -4 305 -56l-260 -1378h-256l234 1223q-43 14 -88 14q-139 0 -172 -180l-11 -56h146l-33 -180h-147l-156 -821h-256z" />
<glyph unicode="&#xfb03;" horiz-adv-x="1478" d="M37 0l156 821h-134l33 180h135l9 41q29 154 126 258q111 106 271 107q86 0 143 -31l-86 -184q-29 14 -63 14q-49 0 -80 -35q-41 -41 -58 -127l-10 -43h262l11 50q12 63 39.5 121.5t81 122t147.5 101.5t217 38q152 0 238 -41l-62 -197q-86 33 -186 33q-193 0 -223 -193 l-7 -35h484l-191 -1001h-256l158 821h-227l-158 -821h-256l158 821h-260l-158 -821h-254z" />
<glyph unicode="&#xfb04;" horiz-adv-x="1478" d="M37 0l156 821h-134l33 180h135l9 41q35 170 129 263q106 102 262 102q74 0 143 -31l-76 -186q-29 16 -69 16q-45 0 -76 -35q-43 -41 -60 -127l-10 -43h262l9 39q39 199 155 291q125 104 340 103q82 0 172 -16.5t133 -39.5l-260 -1378h-256l234 1223q-39 14 -88 14 q-70 0 -114 -50t-58 -130l-11 -56h148l-35 -180h-145l-158 -821h-256l158 821h-260l-158 -821h-254z" />
</font>
</defs>
</svg>
